<mxfile host="Electron" agent="Mozilla/5.0 (X11; Linux x86_64) AppleWebKit/537.36 (KHTML, like Gecko) draw.io/28.0.6 Chrome/138.0.7204.100 Electron/37.2.3 Safari/537.36" version="28.0.6">
  <diagram name="Page-1" id="0YHGau-DMw19u6aZMMi5">
    <mxGraphModel dx="806" dy="531" grid="1" gridSize="10" guides="1" tooltips="1" connect="1" arrows="1" fold="1" page="1" pageScale="1" pageWidth="850" pageHeight="1100" math="0" shadow="0">
      <root>
        <mxCell id="0" />
        <mxCell id="1" parent="0" />
        <mxCell id="IVpzqw-JiFi6awSvrfT_-2" value="Press enter" style="ellipse;whiteSpace=wrap;html=1;" parent="1" vertex="1">
          <mxGeometry x="250" y="90" width="150" height="50" as="geometry" />
        </mxCell>
        <mxCell id="IVpzqw-JiFi6awSvrfT_-3" value="" style="endArrow=classic;html=1;rounded=0;exitX=0.5;exitY=1;exitDx=0;exitDy=0;entryX=0.5;entryY=0;entryDx=0;entryDy=0;" parent="1" source="IVpzqw-JiFi6awSvrfT_-2" target="IVpzqw-JiFi6awSvrfT_-6" edge="1">
          <mxGeometry width="50" height="50" relative="1" as="geometry">
            <mxPoint x="325" y="50" as="sourcePoint" />
            <mxPoint x="325" y="100" as="targetPoint" />
          </mxGeometry>
        </mxCell>
        <mxCell id="IVpzqw-JiFi6awSvrfT_-8" style="edgeStyle=orthogonalEdgeStyle;rounded=0;orthogonalLoop=1;jettySize=auto;html=1;exitX=1;exitY=0.5;exitDx=0;exitDy=0;entryX=0;entryY=0.5;entryDx=0;entryDy=0;" parent="1" source="IVpzqw-JiFi6awSvrfT_-6" target="IVpzqw-JiFi6awSvrfT_-7" edge="1">
          <mxGeometry relative="1" as="geometry" />
        </mxCell>
        <mxCell id="IVpzqw-JiFi6awSvrfT_-19" style="edgeStyle=orthogonalEdgeStyle;rounded=0;orthogonalLoop=1;jettySize=auto;html=1;exitX=0.5;exitY=1;exitDx=0;exitDy=0;entryX=0.5;entryY=0;entryDx=0;entryDy=0;" parent="1" source="IVpzqw-JiFi6awSvrfT_-6" target="IVpzqw-JiFi6awSvrfT_-10" edge="1">
          <mxGeometry relative="1" as="geometry">
            <mxPoint x="325" y="270" as="targetPoint" />
          </mxGeometry>
        </mxCell>
        <mxCell id="IVpzqw-JiFi6awSvrfT_-6" value="Use selected beat to&lt;div&gt;look for matching TrackLine&lt;/div&gt;" style="rounded=1;whiteSpace=wrap;html=1;" parent="1" vertex="1">
          <mxGeometry x="265" y="200" width="120" height="50" as="geometry" />
        </mxCell>
        <mxCell id="IVpzqw-JiFi6awSvrfT_-7" value="Perhaps highlight the current line or change its color once selected" style="rounded=1;whiteSpace=wrap;html=1;dashed=1;" parent="1" vertex="1">
          <mxGeometry x="450" y="190" width="120" height="70" as="geometry" />
        </mxCell>
        <mxCell id="IVpzqw-JiFi6awSvrfT_-21" style="edgeStyle=orthogonalEdgeStyle;rounded=0;orthogonalLoop=1;jettySize=auto;html=1;exitX=0;exitY=0.5;exitDx=0;exitDy=0;entryX=1;entryY=0.5;entryDx=0;entryDy=0;" parent="1" source="IVpzqw-JiFi6awSvrfT_-10" target="IVpzqw-JiFi6awSvrfT_-23" edge="1">
          <mxGeometry relative="1" as="geometry">
            <mxPoint x="200" y="345" as="targetPoint" />
          </mxGeometry>
        </mxCell>
        <mxCell id="IVpzqw-JiFi6awSvrfT_-22" value="No" style="edgeLabel;html=1;align=center;verticalAlign=middle;resizable=0;points=[];" parent="IVpzqw-JiFi6awSvrfT_-21" vertex="1" connectable="0">
          <mxGeometry x="-0.0019" y="1" relative="1" as="geometry">
            <mxPoint as="offset" />
          </mxGeometry>
        </mxCell>
        <mxCell id="IVpzqw-JiFi6awSvrfT_-10" value="TrackLine found?" style="rhombus;whiteSpace=wrap;html=1;" parent="1" vertex="1">
          <mxGeometry x="262.5" y="300" width="125" height="90" as="geometry" />
        </mxCell>
        <mxCell id="IVpzqw-JiFi6awSvrfT_-12" value="" style="endArrow=classic;html=1;rounded=0;exitX=0.5;exitY=1;exitDx=0;exitDy=0;entryX=0.5;entryY=0;entryDx=0;entryDy=0;" parent="1" source="IVpzqw-JiFi6awSvrfT_-10" target="IVpzqw-JiFi6awSvrfT_-14" edge="1">
          <mxGeometry width="50" height="50" relative="1" as="geometry">
            <mxPoint x="420" y="450" as="sourcePoint" />
            <mxPoint x="460" y="395" as="targetPoint" />
          </mxGeometry>
        </mxCell>
        <mxCell id="IVpzqw-JiFi6awSvrfT_-13" value="Yes" style="edgeLabel;html=1;align=center;verticalAlign=middle;resizable=0;points=[];" parent="IVpzqw-JiFi6awSvrfT_-12" vertex="1" connectable="0">
          <mxGeometry x="-0.269" y="1" relative="1" as="geometry">
            <mxPoint x="1" as="offset" />
          </mxGeometry>
        </mxCell>
        <mxCell id="IVpzqw-JiFi6awSvrfT_-24" style="edgeStyle=orthogonalEdgeStyle;rounded=0;orthogonalLoop=1;jettySize=auto;html=1;" parent="1" source="IVpzqw-JiFi6awSvrfT_-14" edge="1">
          <mxGeometry relative="1" as="geometry">
            <mxPoint x="325" y="530" as="targetPoint" />
          </mxGeometry>
        </mxCell>
        <mxCell id="IVpzqw-JiFi6awSvrfT_-14" value="Enable note edit mode" style="rounded=1;whiteSpace=wrap;html=1;" parent="1" vertex="1">
          <mxGeometry x="265" y="440" width="120" height="35" as="geometry" />
        </mxCell>
        <mxCell id="IVpzqw-JiFi6awSvrfT_-23" value="IDK, this should not ever happen" style="rounded=1;whiteSpace=wrap;html=1;" parent="1" vertex="1">
          <mxGeometry x="80" y="315" width="120" height="60" as="geometry" />
        </mxCell>
        <mxCell id="IVpzqw-JiFi6awSvrfT_-26" value="Partition the note into a DEFAULT number of partitions" style="rounded=1;whiteSpace=wrap;html=1;" parent="1" vertex="1">
          <mxGeometry x="268" y="530" width="120" height="60" as="geometry" />
        </mxCell>
        <mxCell id="IVpzqw-JiFi6awSvrfT_-27" style="edgeStyle=orthogonalEdgeStyle;rounded=0;orthogonalLoop=1;jettySize=auto;html=1;entryX=0;entryY=0.5;entryDx=0;entryDy=0;" parent="1" target="IVpzqw-JiFi6awSvrfT_-28" edge="1">
          <mxGeometry relative="1" as="geometry">
            <mxPoint x="390" y="560" as="sourcePoint" />
          </mxGeometry>
        </mxCell>
        <mxCell id="IVpzqw-JiFi6awSvrfT_-28" value="Perhaps&amp;nbsp;&lt;div&gt;DEFAULT = 10&amp;nbsp;&lt;/div&gt;&lt;div&gt;start with that&lt;/div&gt;" style="rounded=1;whiteSpace=wrap;html=1;dashed=1;" parent="1" vertex="1">
          <mxGeometry x="450" y="525" width="120" height="70" as="geometry" />
        </mxCell>
        <mxCell id="IVpzqw-JiFi6awSvrfT_-29" value="" style="endArrow=classic;html=1;rounded=0;exitX=0.5;exitY=1;exitDx=0;exitDy=0;entryX=0.5;entryY=0;entryDx=0;entryDy=0;" parent="1" source="IVpzqw-JiFi6awSvrfT_-26" target="IVpzqw-JiFi6awSvrfT_-31" edge="1">
          <mxGeometry width="50" height="50" relative="1" as="geometry">
            <mxPoint x="340" y="710" as="sourcePoint" />
            <mxPoint x="328" y="630" as="targetPoint" />
          </mxGeometry>
        </mxCell>
        <mxCell id="IVpzqw-JiFi6awSvrfT_-31" value="" style="rounded=1;whiteSpace=wrap;html=1;" parent="1" vertex="1">
          <mxGeometry x="272" y="650" width="112" height="40" as="geometry" />
        </mxCell>
      </root>
    </mxGraphModel>
  </diagram>
</mxfile>
